<svg width="404" height="474" xmlns="http://www.w3.org/2000/svg" xmlns:xlink="http://www.w3.org/1999/xlink" xml:space="preserve" overflow="hidden"><defs><clipPath id="clip0"><rect x="39" y="186" width="404" height="474"/></clipPath></defs><g clip-path="url(#clip0)" transform="translate(-39 -186)"><path d="M325.096 567.028 322.828 567.028C313 566.272 304.683 558.712 302.415 548.883L250.249 272.174 217.739 370.459C214.715 379.531 206.398 385.579 196.57 385.579L60.483 385.579 60.483 340.217 179.937 340.217 235.128 174.645C238.152 164.816 247.98 158.768 257.809 159.524 267.637 160.28 276.71 167.84 278.222 177.669L331.145 461.183 408.26 257.053C412.041 247.98 420.357 241.932 430.186 242.688 440.014 243.444 448.33 249.492 451.355 259.321L494.449 400.7 542.835 347.777C547.371 343.241 553.42 340.217 559.468 340.217L665.313 340.217 665.313 385.579 569.297 385.579 500.497 461.183C495.205 467.231 486.888 469.499 478.572 467.987 470.256 466.475 464.207 460.427 461.939 452.111L427.917 335.681 346.265 552.664C343.241 560.98 334.169 567.028 325.096 567.028Z" transform="matrix(1 0 0 1.07891 -11.6316 32.8002)"/></g></svg>