<svg width="624" height="474" xmlns="http://www.w3.org/2000/svg" xmlns:xlink="http://www.w3.org/1999/xlink" xml:space="preserve" overflow="hidden"><g transform="translate(-112 -101)"><path d="M324.947 566.768 322.68 566.768C312.856 566.013 304.543 558.456 302.276 548.632L250.134 272.049 217.639 370.289C214.616 379.357 206.304 385.402 196.48 385.402L60.4553 385.402 60.4553 340.061 179.854 340.061 235.02 174.565C238.043 164.741 247.867 158.695 257.691 159.451 267.515 160.206 276.583 167.763 278.094 177.587L330.993 460.971 408.073 256.935C411.852 247.867 420.164 241.821 429.988 242.577 439.812 243.332 448.125 249.378 451.147 259.202L494.222 400.516 542.586 347.618C547.12 343.084 553.166 340.061 559.211 340.061L665.008 340.061 665.008 385.402 569.035 385.402 500.267 460.971C494.978 467.017 486.665 469.284 478.352 467.773 470.04 466.261 463.994 460.216 461.727 451.903L427.721 335.527 346.106 552.41C343.084 560.723 334.015 566.768 324.947 566.768Z" transform="matrix(1 0 0 1.07941 61.3844 -52.1998)"/></g></svg>